inDegrees=yes
name=ik_S55_A13_T02
DataType=double
version=3
OpenSimVersion=4.3-2021-08-27-4bc7ad9
endheader
time	pelvis_tilt	pelvis_list	pelvis_rotation	pelvis_tx	pelvis_ty	pelvis_tz	hip_flexion_r	hip_adduction_r	hip_rotation_r	knee_angle_r	knee_angle_r_beta	ankle_angle_r	subtalar_angle_r	mtp_angle_r	hip_flexion_l	hip_adduction_l	hip_rotation_l	knee_angle_l	knee_angle_l_beta	ankle_angle_l	subtalar_angle_l	mtp_angle_l	lumbar_extension	lumbar_bending	lumbar_rotation	arm_flex_r	arm_add_r	arm_rot_r	elbow_flex_r	pro_sup_r	wrist_flex_r	wrist_dev_r	arm_flex_l	arm_add_l	arm_rot_l	elbow_flex_l	pro_sup_l	wrist_flex_l	wrist_dev_l
0	0	0	0	0	0.9399999999999999	0	0	0	0	0	0	0	0	0	0	0	0	0	0	0	0	0	0	0	0	0	0	0	0	89.99999999963507	0	0	0	0	0	0	89.99999999869995	0	0
0.02	1.622231135585355	-0.06675582370503721	21.36883167982862	0	0.9399999999999999	0	2.882330752452139	-1.349895861626547	-0.9708987320830744	4.471100041702186	0.07803541691375893	0	0	0	2.882330752452139	-1.349895861626547	-0.9708987320830744	4.471100041702186	0.07803541691375893	0	0	0	2.214265279720572	0.7756645384741128	3.266889086915154	14.29406794232681	-0.2877530066194708	28.73884608617119	20.58728385927253	142.5052794394606	0	0	4.771992225522378	-3.134086438436877	4.350793699278901	29.00525518487935	160.6571619205412	0	0
0.04	1.596854458359945	-0.07314023057335209	21.35218339015541	0	0.9399999999999999	0	3.019229948072273	-1.418088753355791	-1.019753556615955	4.622283567686555	0.08067406721696056	0	0	0	3.019229948072273	-1.418088753355791	-1.019753556615955	4.622283567686555	0.08067406721696056	0	0	0	2.186915713945348	0.7762685472851785	3.261430515675561	14.34089312705416	-0.2994576765011239	28.71467291163964	20.63633472967665	142.4566985398765	0	0	4.822690899604449	-3.133294068350553	4.331391099494261	29.00640097345536	160.6160301677514	0	0
0.06	1.595328502788903	-0.05078177870126426	21.36533704321826	0	0.9399999999999999	0	4.622176734604701	-2.197441242922165	-1.582016088182587	6.49293221340711	0.1133230452327572	0	0	0	4.622176734604701	-2.197441242922165	-1.582016088182587	6.49293221340711	0.1133230452327572	0	0	0	2.176882317663702	0.7566975321787456	3.254972555234175	14.34702603519069	-0.3123864646399652	28.67830953362075	20.63406397270156	142.5012645391928	0	0	4.813074955594469	-3.131344335697041	4.360305604171642	29.01790305475666	160.5946888900324	0	0
0.08	1.585382358841189	-0.05402700803983409	21.41322838692196	0	0.9399999999999999	0	5.964525426416186	-2.829097345051432	-2.047746943711334	8.036875592635512	0.1402699406646602	0	0	0	5.964525426416186	-2.829097345051432	-2.047746943711334	8.036875592635512	0.1402699406646602	0	0	0	2.158294839978981	0.7424436643294277	3.199437179307341	14.37873386703532	-0.3221764172403387	28.68598911671551	20.73493131934695	142.4555469496758	0	0	4.808100393485627	-3.164867741949676	4.352848478259672	29.12574131562242	160.4652046636099	0	0
0.1	1.58746900313903	-0.05221857178171137	21.42608535343039	0	0.9399999999999999	0	5.952955787142679	-2.827303044677307	-2.044677940673531	8.024645510993953	0.1400564854722273	0	0	0	5.952955787142679	-2.827303044677307	-2.044677940673531	8.024645510993953	0.1400564854722273	0	0	0	2.1608464763132	0.7434732390473218	3.181768971785548	14.36606086360112	-0.2854008648897223	28.69313161200381	20.64015871429214	142.5411843572539	0	0	4.796770556666991	-3.137508747992286	4.252724475544404	29.04171304750013	160.6843312418734	0	0
0.12	1.587615280853028	-0.05067543858627486	21.43867221669475	0	0.9399999999999999	0	6.037968484368314	-2.86307417981704	-2.074667195287066	8.097946878684358	0.1413358356846399	0	0	0	6.037968484368314	-2.86307417981704	-2.074667195287066	8.097946878684358	0.1413358356846399	0	0	0	2.160456224101748	0.7426322505754492	3.17383777857641	14.36637865430952	-0.2849463109720528	28.69605044249029	20.65090514822259	142.5306873333567	0	0	4.799313250490614	-3.139950257481076	4.22666532137758	29.044071666208	160.7154716800224	0	0
0.14	1.586535993155682	-0.04514679816858648	21.44484115898042	0	0.9399999999999999	0	6.119436793340662	-2.898885157904231	-2.103456977265008	8.173012215154213	0.1426459729601562	0	0	0	6.119436793340662	-2.898885157904231	-2.103456977265008	8.173012215154213	0.1426459729601562	0	0	0	2.16047830185953	0.7458978858422438	3.159280188744387	14.37314543683377	-0.2903138884018248	28.708386245152	20.656726936746	142.5315307170754	0	0	4.791310895663964	-3.141690867329693	4.181057833109554	29.03973252889281	160.7146889071624	0	0
0.16	1.579377972128937	-0.04439507883963916	21.46522471698451	0	0.9399999999999999	0	6.596313800154256	-3.100779943987996	-2.266381411426316	8.663997091762614	0.1512152756344709	0	0	0	6.596313800154256	-3.100779943987996	-2.266381411426316	8.663997091762614	0.1512152756344709	0	0	0	2.14768936652482	0.7396074787624786	3.127021814747139	14.38758431254126	-0.2966136848400482	28.69425142421831	20.641905827435	142.594646390244	0	0	4.816887316900509	-3.152256438452288	4.126345007203682	29.03041572310535	160.7624225383413	0	0
0.18	1.58300296718445	-0.0380056371347474	21.4760310092306	0	0.9399999999999999	0	6.668125489686219	-3.13345809705721	-2.291748519825534	8.734621981345498	0.1524479124915497	0	0	0	6.668125489686219	-3.13345809705721	-2.291748519825534	8.734621981345498	0.1524479124915497	0	0	0	2.15262742812506	0.7424564767786854	3.121607955784675	14.36963883374072	-0.295590996383104	28.70900174958303	20.66091654992649	142.5535743879634	0	0	4.788364062124791	-3.139365311275184	4.134290009425519	29.03925143813308	160.7227005645757	0	0
0.2	1.581565343841067	-0.03674411319552714	21.48123660556622	0	0.9399999999999999	0	6.711049340354551	-3.153797371286776	-2.307200204659897	8.775953566835252	0.1531692847434154	0	0	0	6.711049340354551	-3.153797371286776	-2.307200204659897	8.775953566835252	0.1531692847434154	0	0	0	2.151289308784746	0.7430339184937669	3.115764345532877	14.36894852619452	-0.2834424043175608	28.7318573893198	20.64927076772108	142.5429772100441	0	0	4.782655722638056	-3.125088747398766	4.127846998937756	29.03171727352442	160.7388988437906	0	0
0.22	1.578323658556792	-0.03732479683123484	21.48464975506398	0	0.9399999999999999	0	6.791667993898439	-3.191614798016309	-2.335435764696683	8.862081788797031	0.1546725057955369	0	0	0	6.791667993898439	-3.191614798016309	-2.335435764696683	8.862081788797031	0.1546725057955369	0	0	0	2.14744484906366	0.7418703350572156	3.107932273158869	14.3840013254063	-0.2754392591055426	28.74336313794495	20.65258391153373	142.5030940629941	0	0	4.799834215632396	-3.132605143507678	4.111391898502201	29.02870885054873	160.7419188284953	0	0
